<svg xmlns="http://www.w3.org/2000/svg" width="475" height="120" viewBox="0 0 475 120"><defs><style>.a{fill:#fff;stroke:#ff748d;stroke-width:31px;}.b{fill:#06106e;font-size:42px;font-family:CenturyGothic-Bold, Century Gothic;font-weight:700;}.c{stroke:none;}.d{fill:none;}</style></defs><g transform="translate(-1106 -256)"><g class="a" transform="translate(1106 256)"><path class="c" d="M60,0H415a60,60,0,0,1,60,60v60a0,0,0,0,1,0,0H60A60,60,0,0,1,0,60v0A60,60,0,0,1,60,0Z"/><path class="d" d="M60,15.5H415A44.5,44.5,0,0,1,459.5,60V92.709A11.791,11.791,0,0,1,447.709,104.5H60A44.5,44.5,0,0,1,15.5,60v0A44.5,44.5,0,0,1,60,15.5Z"/></g><text class="b" transform="translate(1201 333)"><tspan x="0" y="0">Buy Groceries</tspan></text></g></svg>