<svg xmlns="http://www.w3.org/2000/svg" width="447.813" height="410.54" viewBox="0 0 447.813 410.54"><defs><style>.a{fill:#89baf4;}.b{fill:#90bdf3;}.c{fill:#666ca6;}.d{fill:#c0daf9;}.e{fill:#69a0e1;}.f{fill:#4d65b1;}.g{fill:#3851a1;}.h{fill:#76b1f7;}.i{fill:#06106e;}.j{fill:#174cb1;}</style></defs><g transform="translate(-1133.46 -401)"><g transform="translate(-26 48)"><g transform="translate(1187 353)"><path class="a" d="M2.3,0h38.83a2.4,2.4,0,0,1,2.4,2.4V23.981a0,0,0,0,1,0,0H0a0,0,0,0,1,0,0V2.3A2.3,2.3,0,0,1,2.3,0Z" transform="translate(178.573 18.667)"/><rect class="a" width="43.532" height="1.905" rx="0.457" transform="translate(178.573 44.627)"/><path class="b" d="M397.129,175.644h12.759a9.78,9.78,0,0,0,9.125,8.593c8.417.8,9.038-8.593,9.038-8.593h3.1s-.974,9.657,6.822,10.011c0,0,6.291.355,5.492-9.568l16.48.089V238.49H398.37Z" transform="translate(-176.265 -110.905)"/><path class="c" d="M285.512,217.579s.591-20.908,27.407-38.746c0,0,13.171-11.711,39.633-11.711S383.09,180.6,383.09,180.6l-23.272,32.014L319.3,229.039l-25.872,2.008-7.915-13.94" transform="translate(-219.579 -114.212)"/><path class="a" d="M293.082,237.87l-3.093-84.291c0-.068-.092-1.714-.092-1.781,0-1.141-.272-8.718,2.014-6.8.6.5.776,2.841,1.235,6.516,1.816,14.523,3.341,74.807,3.617,86.254a1.837,1.837,0,0,1-1.842,1.881h0A1.842,1.842,0,0,1,293.082,237.87Z" transform="translate(-217.881 -122.919)"/><path class="a" d="M296.151,243.078l1.417-103.13s0-5.316,2.6-5.906c0,0,3.426-1.063,3.19,6.26s1.3,100.058,1.3,100.058Z" transform="translate(-215.45 -127.07)"/><path class="a" d="M303.295,225.993l1.188-92.261a5.962,5.962,0,0,1,2.127-4.726s2.48-.236,2.007,5.08.827,84.229.827,84.229Z" transform="translate(-212.678 -129.004)"/><path class="a" d="M314.1,201.381l-.59-45.835s.354-5.434-2.364-5.434-2.48,6.969-2.48,6.969l-.006,48.6Z" transform="translate(-210.597 -120.813)"/><path class="a" d="M313.412,192.85l6.164-3.962.945-15.831s.826-5.345-2.126-5.921-3.426,3.795-3.545,6.749S313.412,192.85,313.412,192.85Z" transform="translate(-208.752 -114.226)"/><path class="a" d="M373.187,181.936s-5.2-9.46-5.2-13.593-4.962-1.891-4.962-1.891-14.766,10.868-17.365,13-8.18,6.7-7.812,11.089S349.2,207.68,349.2,207.68l13.821,4.017,11.7-13.586Z" transform="translate(-199.277 -114.708)"/><path class="d" d="M331.238,190.222c-.033-.418.38-5.852,3.216-7.387s1.477-.06,1.713-2.3a13.4,13.4,0,0,1,.236-2.245c.178-.768,3.066-1.181,3.985-.3s1.863-1.063,1.745-1.653a14.13,14.13,0,0,1,.59-3.072s1.3-3.544,2.362-3.19,1.655-1.688,3.013-.962,2.245.49,3.248.726a1.674,1.674,0,0,0,1.949-.884c.355-.593-.176-2.129.591-2.483s1.181-1.771,2.185-1.653,2.744-.1,2.761-1.263.015-2.694,1.314-2.281.945.57,2.186-.069.709.837,2.067-.58,0-.887,2.3-1.655,2.7-2.716,3.359-.59,1.544.354,1.188,2.894-1.02,2.776-1.188,4.371a18.351,18.351,0,0,0-.347,2.776c.031,1.135-1.417,3.721-1.417,3.721l-17.366,12.817-13.7,13.171Z" transform="translate(-201.835 -117.977)"/><path class="a" d="M276.661,199.758a17.212,17.212,0,0,1,13.231,2.48,8.237,8.237,0,0,0,4.962,2.126c2.716,0,10.041.945,14.293,7.443s-6.614,27.052-6.614,27.052L278.2,235.316,276.661,220.9Z" transform="translate(-223.013 -101.705)"/><path class="d" d="M277.206,201.065l-1.949-3.663s6.911-3.662,11.4.769,8.21,3.426,8.21,3.426,6.932-1.928,11.281,5.847c0,0,3.266,2.661,4.889,2.526s-2.526,5.183-2.526,5.183Z" transform="translate(-223.558 -103.013)"/><path class="e" d="M410.534,238.584s11.783-21.353,22.416-30.3c0,0,14.352-18.074,32.958-1.595,0,0,24.631,17.9,34.288,48.729l-26.313,15.328Z" transform="translate(-171.063 -101.548)"/><path class="d" d="M441.482,309.735s-1.181-85.942-2.214-97.887c-.92-10.652-5.846-15.534-5.846-15.534l-12.995-13.173c-7.619-7.5-5.841-20.614-5.841-20.614h-39.73s2.008,12.3-5.611,19.8l-13,13.171s-5.157,4.865-5.848,15.534c-1.084,16.751,4.6,95.275,4.844,94.128Z" transform="translate(-194.451 -115.995)"/><path class="f" d="M382.512,271.575c0-.532,5.139-37.478,45.1-44.033,0,0,36.5-5.67,52.539,22.416s-3.633,35.883-3.633,35.883L421.851,290,399.435,278.13Z" transform="translate(-181.937 -90.948)"/><path class="e" d="M407.285,262.476l7.011-8.856s5.5-2.881,9.822-3.194c0,0,13.822-2.3,22.151,12.05s-39.693,6.468-39.693,6.468Z" transform="translate(-172.599 -81.938)"/><path class="g" d="M442.832,267.5s-.65-17.838,15.771-25.635c0,0,21.84-9.716,38.5,3.75A27.984,27.984,0,0,1,507.865,267.5c.38,15.946-59.3,6.262-59.3,6.262Z" transform="translate(-158.531 -86.522)"/><g transform="translate(75.446 71.59)"><path class="e" d="M393.25,289.5s-5.788-63.141-21.028-86c0,0-9.214-19.669-26.58-22.414,0,0-15.682-4.253-29.414,11.961s-21.421,46.676-21.421,46.676l-2.443,50.96Z" transform="translate(-292.365 -180.579)"/><ellipse class="c" cx="23.981" cy="8.151" rx="23.981" ry="8.151" transform="translate(23.683 44.419)"/><ellipse class="c" cx="29.828" cy="8.151" rx="29.828" ry="8.151" transform="translate(18.131 84.401)"/></g><path class="g" d="M249.723,275.465h68.4s19.139-41.7-11.34-53.514c0,0-15.358-5.316-37.8.708S245.47,259.636,249.723,275.465Z" transform="translate(-234.231 -93.775)"/><path class="h" d="M280.918,231.183c2.157-18.411.323-26.752-1.02-30.153a8.556,8.556,0,0,0-2.114-3.062c-10.46-9.889-16.121,1.655-16.121,1.655l-5.257-3.721s6.38-8.21,19.433-4.549,12.168,19.948,11.282,39.832Z" transform="translate(-230.874 -105.174)"/><ellipse class="c" cx="4.962" cy="6.708" rx="4.962" ry="6.708" transform="translate(256.245 84.873)"/><path class="d" d="M419.259,270.065V250.876a18.3,18.3,0,0,0-11.973,11.159l-.709,6.468s5.62.922,12.681,1.562Z" transform="translate(-172.599 -81.71)"/><rect class="i" width="363.967" height="25.871" rx="9.319" transform="translate(0.033 178.731)"/><path class="a" d="M547.02,410.6H283.248a20.741,20.741,0,0,1-20.557-17.989L247.142,276.406H583.584L570.411,389.773A23.548,23.548,0,0,1,547.02,410.6Z" transform="translate(-234.469 -71.803)"/><rect class="i" width="20.083" height="75.369" rx="7.234" transform="translate(59.69 228.229)"/><rect class="i" width="20.083" height="75.369" rx="7.234" transform="translate(134.611 228.229)"/><rect class="i" width="20.083" height="75.369" rx="7.234" transform="translate(208.395 228.229)"/><rect class="i" width="20.083" height="75.369" rx="7.234" transform="translate(283.134 228.229)"/><rect class="i" width="22.002" height="207.397" rx="7.926" transform="matrix(-0.588, -0.809, 0.809, -0.588, 12.945, 328.232)"/><ellipse class="j" cx="20.85" cy="19.85" rx="20.85" ry="19.85" transform="translate(161.166 171.817)"/><circle class="a" cx="9.392" cy="9.392" r="9.392" transform="translate(172.625 182.275)"/></g></g><g transform="matrix(0.017, 1, -1, 0.017, 1554.058, 394.165)"><g transform="translate(342.735 -20.558)"><path class="d" d="M379.723,10.215a22.164,22.164,0,0,1-3.114,8.174,25.708,25.708,0,0,1-5.873,6.686,13.359,13.359,0,0,1-3.286,2.008,7.619,7.619,0,0,1-.745.252c-.9.249-1.866.343-2.786.566.187.194.375.389.557.588.428.221.869.423,1.3.633.137.066.273.134.409.2,1.259.641,2.53,1.637,2.2,3.22s-2.007,2.928-3.387,3.61a12.1,12.1,0,0,1-5.411,1.113c-.561,0-1.121-.027-1.68-.073a42.113,42.113,0,0,1-9.767-2.336,22.567,22.567,0,0,0-3.416-1.045,13.465,13.465,0,0,1-2.309-.418l-.1-.039a2.229,2.229,0,0,1-.532-.284c-.94-.693-.845-1.958-.658-3.109a18.068,18.068,0,0,1,.509-2.191,19.68,19.68,0,0,1,.86-4.224,14.959,14.959,0,0,1,1.569-3.779c.874-1.344,2.645-2.27,4.11-1.257a4,4,0,0,1,.746.674,15.679,15.679,0,0,1,2.3-5.978c.795-1.234,2.008-2.86,3.673-2.724a4.18,4.18,0,0,1,2.529,1.441,12.133,12.133,0,0,0,.057-1.839,35.758,35.758,0,0,1-.058-3.674c.229-2.855,1.535-5.445,2.721-8a20.893,20.893,0,0,0,2.141-7.856c.094-2.1-.54-4.178-.31-6.282a5.7,5.7,0,0,1,2.525-4.169,4.859,4.859,0,0,1,.845-.423l.008,0a4.941,4.941,0,0,1,4.574.939,15.016,15.016,0,0,1,5.587,9.72,26.759,26.759,0,0,1,.034,8.42c0,.04-.01.084-.016.126-.21,1.381-.566,2.735-.906,4.091-.1.391-.2.779-.291,1.171-.008.134-.019.267-.031.4.144-.113.291-.223.439-.325a3.484,3.484,0,0,1,2.941-.74A3.234,3.234,0,0,1,379.621,6,10.649,10.649,0,0,1,379.723,10.215Z" transform="translate(-340.998 20.558)"/><path class="d" d="M356.768,11.912l.021.037Z" transform="translate(-331.288 40.551)"/><path class="d" d="M342.724,10.592l0,0C342.751,10.6,342.763,10.6,342.724,10.592Z" transform="translate(-339.935 39.738)"/></g><g transform="translate(346.648 -12.132)"><path class="d" d="M363.485,15.275a13.368,13.368,0,0,1-4.781.96,35.119,35.119,0,0,1-5.18.213,17.277,17.277,0,0,1-5.03-1.349,20.792,20.792,0,0,0-2.33-.788c-.808-.2-1.646-.226-2.456-.42.709-2.7,1.679-5.317,2.29-8.04.037-.163-.213-.233-.249-.069-.62,2.766-1.614,5.429-2.325,8.169a.133.133,0,0,0,.091.16c.885.234,1.81.244,2.693.48a25.233,25.233,0,0,1,2.546.885,16.192,16.192,0,0,0,5.014,1.246,40.719,40.719,0,0,0,5.361-.26,12.667,12.667,0,0,0,4.487-.963C363.766,15.427,363.635,15.2,363.485,15.275Z" transform="translate(-343.42 28.292)"/><path class="d" d="M367.18,5.173c-1.55,3.269-5.2,5.1-8.53,6.02a14.78,14.78,0,0,1-2.915.528c-1.138.078-2.281.042-3.414.2a9.333,9.333,0,0,0-2.05.59,4.334,4.334,0,0,1-2.126.494,44.615,44.615,0,0,0,1.617-5.65A12.18,12.18,0,0,0,350.1,4.7a21.117,21.117,0,0,1-.1-3c.023-.165-.236-.163-.257,0a15.974,15.974,0,0,0,.087,2.765,11.853,11.853,0,0,1-.372,3.059,46.335,46.335,0,0,1-1.608,5.534.131.131,0,0,0,.09.16,3.151,3.151,0,0,0,1.931-.288,13.661,13.661,0,0,1,2.241-.719c1.357-.231,2.742-.132,4.109-.275a15.808,15.808,0,0,0,2.664-.545c3.338-.948,6.962-2.816,8.517-6.091C367.476,5.155,367.251,5.024,367.18,5.173Z" transform="translate(-340.694 25.764)"/><path class="d" d="M366.453-1.691a23.913,23.913,0,0,1-2.819,3.857,17.168,17.168,0,0,1-3.931,2.8c-1.31.695-2.739,1.17-3.991,1.976a6.651,6.651,0,0,0-1.444,1.238,5.21,5.21,0,0,1-1.459,1.4,27.827,27.827,0,0,1,.179-3.419c.081-1.2-.115-2.378-.071-3.574a9.127,9.127,0,0,1,.709-3.351,7.329,7.329,0,0,0,.737-2.075c.016-.165-.242-.163-.26,0a10.069,10.069,0,0,1-.923,2.472,9.215,9.215,0,0,0-.522,2.954c-.044,1.2.152,2.377.071,3.574a24.316,24.316,0,0,0-.17,3.611c.006.076.079.158.165.126a3.407,3.407,0,0,0,1.309-1.047,8.592,8.592,0,0,1,1.627-1.567,48.142,48.142,0,0,1,4.366-2.2,17.227,17.227,0,0,0,3.791-2.744,24.16,24.16,0,0,0,2.86-3.909C366.769-1.7,366.546-1.827,366.453-1.691Z" transform="translate(-337.81 22.97)"/><path class="d" d="M363.841-9.211c-.171-1.007-.638-1.9-.831-2.887-.031-.163-.281-.094-.249.069.174.908.62,1.724.785,2.642a13.482,13.482,0,0,1,.237,3.162,14.124,14.124,0,0,1-1.721,5.689c-1.556,2.992-4.209,5.242-5.781,8.218-.036-1.372.008-2.747-.149-4.11-.17-1.495-.533-2.965-.782-4.447a18.14,18.14,0,0,1-.33-4.7,18.18,18.18,0,0,1,1.175-4.558c.058-.157-.191-.225-.249-.069a19.368,19.368,0,0,0-1.131,4.169,15.961,15.961,0,0,0,.168,4.489c.234,1.561.593,3.1.83,4.661a47.409,47.409,0,0,1,.226,5.072c0,.118.183.189.241.066,1.627-3.4,4.663-5.855,6.3-9.258a13.845,13.845,0,0,0,1.456-5.222A13.394,13.394,0,0,0,363.841-9.211Z" transform="translate(-336.46 17.283)"/><path class="d" d="M360.529-15.277a20.37,20.37,0,0,0-.848,3.036c-.383,1.262-.713,2.534-1.062,3.8-.362-1.024-.782-2.036-1.213-3.031a16.635,16.635,0,0,0-.8-1.7,7.216,7.216,0,0,1-.921-1.735.13.13,0,0,0-.25.068,4.721,4.721,0,0,0,.662,1.341,13.561,13.561,0,0,1,.9,1.711,40.863,40.863,0,0,1,1.52,3.816.131.131,0,0,0,.25,0c.37-1.335.688-2.682,1.107-4a22.934,22.934,0,0,1,.889-3.18C360.826-15.295,360.6-15.427,360.529-15.277Z" transform="translate(-336.027 15.343)"/></g><path class="d" d="M360.138,23.735a29.615,29.615,0,0,0,8.155-12.882c1.425-4.5,2.626-21.824-1.212-31.262,4.786,21.292.512,33.07-4.144,38.733a30.461,30.461,0,0,1-7.895,6.57c-3.337,2-7.033,3.327-10.331,5.395a12.582,12.582,0,0,0-4.354,4.253c-.168.284-.323.574-.47.868a39.091,39.091,0,0,0-1.709,4.295l.246-.006q.591-.017,1.178-.076c.231-.021.46-.048.69-.079a24.847,24.847,0,0,1,1.6-3.774c.053-.094.108-.186.162-.276a10.542,10.542,0,0,1,3.55-3.471c3.322-2.1,7.054-3.432,10.42-5.453A38.417,38.417,0,0,0,360.138,23.735Z" transform="translate(0 0.092)"/><path class="d" d="M368.086,13.612c-.336,1.593-2.007,2.928-3.387,3.61a12.1,12.1,0,0,1-5.411,1.113c-3.931-.01-7.752-1.179-11.448-2.409a22.567,22.567,0,0,0-3.416-1.045,13.466,13.466,0,0,1-2.309-.418l-.1-.039a2.229,2.229,0,0,1-.532-.284,3.412,3.412,0,0,1,.415-.145,31.658,31.658,0,0,1,9.536-.894,60.632,60.632,0,0,0,8.037-.034,16.437,16.437,0,0,0,2.992-.782,13.828,13.828,0,0,0,2.062-1.205c.334-.281.653-.578.958-.889.137.066.273.134.409.2C367.149,11.033,368.42,12.029,368.086,13.612Z" transform="translate(2.034 18.933)"/><path class="d" d="M370.861-3.127a3.234,3.234,0,0,0-1.945-2.514,3.484,3.484,0,0,0-2.941.74c.079.915.137,1.829.15,2.747a22.888,22.888,0,0,1-1.944,9.732,20.492,20.492,0,0,1-3.656,5.295l-.01.015a28.124,28.124,0,0,1-5.29,5.726,1.347,1.347,0,0,1,.205.1c.839-.181,1.706-.28,2.514-.5a7.62,7.62,0,0,0,.745-.252,13.359,13.359,0,0,0,3.286-2.008,25.708,25.708,0,0,0,5.873-6.686,22.164,22.164,0,0,0,3.114-8.174A10.649,10.649,0,0,0,370.861-3.127Z" transform="translate(10.497 9.125)"/></g><path class="d" d="M298.477,80.274a29.616,29.616,0,0,1-7.974,9.248,10.95,10.95,0,0,1-6.151,2.437c-2.466.046-4.768-1.171-6.817-3.8a53.117,53.117,0,0,1-8.591-14.78c-.7-2.007-1.983-4.969-.13-6.7a2.093,2.093,0,0,1,1.894-.6,66.175,66.175,0,0,1-1.031-13.384c.058-2.317.8-5.343,2.972-4.3a4.365,4.365,0,0,0,1.582,2.188c1.548.921,2.184-1.387,1.785-2.795a24.467,24.467,0,0,0-1.048-2.45,11.227,11.227,0,0,1-.15-6.877c1.029-3.868,3.193-7.17,5.225-10.322,1.193-1.85,1.717-4.4,3.234-5.94a1.976,1.976,0,0,1,1.749-.737,1.718,1.718,0,0,1,.379.113c1.1.459,2.044,2.017,2.87,3.29,0,.548,1.186,2.063,1.442,2.611a25.788,25.788,0,0,1,1.206,3.1,33.611,33.611,0,0,1,1.324,6.361c.558,4.807.067,9.583-.2,14.4a6.265,6.265,0,0,0,.046,1.59c.189.935.84,1.56,1.633,1.3a2.6,2.6,0,0,0,1.148-1l.01-.015a6.123,6.123,0,0,0,.993-1.974,10.165,10.165,0,0,0,.27-1.935c.123-1.6,1.21-.8,1.843-.15a4.565,4.565,0,0,1,1.239,2.962c.014.107.029.218.041.333a59.2,59.2,0,0,1,.282,12.118q-.2,2.2-.609,4.346C302.816,70.285,299.861,77.621,298.477,80.274Z" transform="translate(1159.353 1061.98) rotate(-99)"/><g transform="translate(1439.185 800.689) rotate(-77)"><path class="d" d="M285.915,82.637c.005,1.022-.082,2.14-1.072,2.541a1.814,1.814,0,0,1-.3.092,9.719,9.719,0,0,1-1.979.084,17.821,17.821,0,0,0-2.85.442,29.041,29.041,0,0,1-9.419.592,9.54,9.54,0,0,1-4.174-1.561,5.033,5.033,0,0,1-2.251-3.361c-.07-1.334,1.065-2,2.143-2.368.251-.087.5-.166.753-.244s.479-.15.718-.234c.169-.14.341-.278.515-.415-.609-.253-1.263-.432-1.867-.677-.1-.039-.189-.078-.28-.121a9.488,9.488,0,0,1-2.935-2.334,41.79,41.79,0,0,1-2.763-3.851,2.767,2.767,0,0,1-.643-1.324c-.072-.782.79-1.223.9-1.935.137-.855-.507-1.06-1.032-1.6a5.752,5.752,0,0,1-1.583-4.5,11.291,11.291,0,0,1,1.155-3.46c.331-.722.522-1.732,1.4-1.855.454-.063,2.305.766,2.266,1.312l.026-.329c-.118-1.483-.307-2.962-.3-4.45a22.781,22.781,0,0,1,1.07-6.987c.526-1.616,1.42-5.042,3.51-5.105a13.91,13.91,0,0,0,1.706.026l.007,0a3.079,3.079,0,0,0,1.691-.957c1.082-1.121,1.894-2.674,3.363-.913a5.908,5.908,0,0,1,1.261,3.623c-.077,1.747-.841,3.372-1.026,5.1a17.64,17.64,0,0,0,.735,6.684,20.114,20.114,0,0,1,1.179,6.87,30.339,30.339,0,0,1-.5,3,10.169,10.169,0,0,0-.181,1.512,3.337,3.337,0,0,1,2.193-.875c1.343.09,2.107,1.565,2.589,2.67a13.169,13.169,0,0,1,1.092,5.167,3.259,3.259,0,0,1,.681-.462c1.29-.652,2.587.319,3.117,1.525a12.639,12.639,0,0,1,.783,3.28,16.532,16.532,0,0,1,.16,3.558A14.7,14.7,0,0,1,285.915,82.637Z" transform="translate(-257.777 -38.337)"/><path class="d" d="M262.3,63.44l-.022.029Z" transform="translate(-254.601 -20.606)"/><path class="d" d="M273.043,64.02h0C273.021,64.024,273.014,64.018,273.043,64.02Z" transform="translate(-247.007 -20.196)"/><g transform="translate(4.668 6.446)"><path class="d" d="M263.093,65.689a10.6,10.6,0,0,0,3.693,1.362,27.669,27.669,0,0,0,4.1.8,13.614,13.614,0,0,0,4.174-.5,16.566,16.566,0,0,1,1.955-.363c.667-.07,1.338.014,2.007-.048-.23-2.292-.681-4.553-.829-6.853-.009-.138.2-.164.206-.027.152,2.338.616,4.634.841,6.964a.108.108,0,0,1-.09.119c-.735.085-1.473-.019-2.2.068a19.907,19.907,0,0,0-2.14.418,12.816,12.816,0,0,1-4.148.415,31.774,31.774,0,0,1-4.239-.858,10.028,10.028,0,0,1-3.457-1.328C262.85,65.78,262.983,65.613,263.093,65.689Z" transform="translate(-258.812 -29.504)"/><path class="d" d="M261.02,57.168c.833,2.86,3.51,4.8,6.052,5.952a11.789,11.789,0,0,0,2.258.783c.9.2,1.812.309,2.7.575a7.52,7.52,0,0,1,1.561.73,3.4,3.4,0,0,0,1.631.66,37.73,37.73,0,0,1-.589-4.817,10.32,10.32,0,0,1,.06-2.213,17.991,17.991,0,0,0,.447-2.44c0-.137.21-.106.206.031a13.847,13.847,0,0,1-.411,2.251,10.11,10.11,0,0,0-.084,2.548,39.436,39.436,0,0,0,.6,4.72.11.11,0,0,1-.092.119,2.472,2.472,0,0,1-1.5-.468,10.9,10.9,0,0,0-1.7-.857c-1.053-.353-2.169-.44-3.24-.72a12.58,12.58,0,0,1-2.056-.766c-2.541-1.179-5.2-3.141-6.03-6.008C260.789,57.117,260.982,57.037,261.02,57.168Z" transform="translate(-260.294 -32.088)"/><path class="d" d="M260.716,52.057a19.644,19.644,0,0,0,1.77,3.495,13.805,13.805,0,0,0,2.785,2.768c.957.727,2.037,1.287,2.935,2.1a5.417,5.417,0,0,1,1,1.186,4.273,4.273,0,0,0,.988,1.322,22.923,22.923,0,0,0,.282-2.819c.082-.99.386-1.932.5-2.916a7.825,7.825,0,0,0-.148-2.826,6.092,6.092,0,0,1-.333-1.785c.007-.138.213-.106.2.031a8.518,8.518,0,0,0,.43,2.133,7.8,7.8,0,0,1,.053,2.479c-.114.983-.416,1.925-.5,2.914a20.469,20.469,0,0,1-.314,2.976c-.014.06-.082.119-.145.082a2.757,2.757,0,0,1-.915-1.014,6.882,6.882,0,0,0-1.1-1.478,38.015,38.015,0,0,0-3.2-2.324,13.912,13.912,0,0,1-2.681-2.7,19.933,19.933,0,0,1-1.793-3.541C260.464,52.012,260.658,51.934,260.716,52.057Z" transform="translate(-260.512 -35.136)"/><path class="d" d="M262.415,46.752c.259-.8.742-1.476,1.019-2.263.046-.13.235-.043.191.087-.254.72-.708,1.334-.954,2.066a11.411,11.411,0,0,0-.58,2.558,11.887,11.887,0,0,0,.667,4.861c.87,2.635,2.706,4.793,3.588,7.417.2-1.118.336-2.249.628-3.346.321-1.2.792-2.36,1.172-3.541a15.429,15.429,0,0,0,.845-3.8,15.3,15.3,0,0,0-.374-3.872c-.026-.135.181-.16.208-.026a16.4,16.4,0,0,1,.386,3.546,13.533,13.533,0,0,1-.688,3.652c-.38,1.249-.857,2.466-1.239,3.713a40.1,40.1,0,0,0-.807,4.121c-.019.1-.169.133-.2.026-.874-2.978-2.991-5.349-3.878-8.334a11.7,11.7,0,0,1-.514-4.445A11.352,11.352,0,0,1,262.415,46.752Z" transform="translate(-259.573 -40.482)"/><path class="d" d="M264.185,42.182a17,17,0,0,1,.3,2.585c.15,1.078.256,2.159.377,3.24.415-.8.874-1.573,1.341-2.334a13.932,13.932,0,0,1,.851-1.292A6.117,6.117,0,0,0,268,43.072a.1.1,0,0,1,.189.087,4.016,4.016,0,0,1-.693,1.017,11.17,11.17,0,0,0-.925,1.292c-.6.949-1.179,1.933-1.684,2.938a.105.105,0,0,1-.2-.031c-.13-1.135-.217-2.276-.386-3.406a19.329,19.329,0,0,0-.316-2.708C263.951,42.131,264.145,42.05,264.185,42.182Z" transform="translate(-258.06 -42.115)"/></g><path class="d" d="M284.223,90.9a.888.888,0,0,1-.1.493q-.64-.023-1.271-.1a3.4,3.4,0,0,1-.432-1.415,13.419,13.419,0,0,0-.64-2.408c-.031-.084-.061-.166-.094-.246-.012-.029-.022-.056-.036-.087a7.782,7.782,0,0,0-1.208-1.991,10.222,10.222,0,0,0-1.155-1.188c-.645-.573-1.322-1.106-2.015-1.614-.1-.072-.194-.145-.293-.215-1.776-1.288-3.638-2.462-5.32-3.887-.162-.14-.326-.28-.488-.423q-.3-.261-.594-.536c-.638-.587-1.259-1.2-1.846-1.855a23.674,23.674,0,0,1-3.271-5.619c-.055-.128-.107-.259-.159-.389a25.354,25.354,0,0,1-1.476-5.511q-.044-.282-.072-.63v0c-.014-.143-.024-.3-.031-.456a60.138,60.138,0,0,1,1.1-12.615c.043-.234.085-.466.133-.7a37.149,37.149,0,0,1,3.7-11.023,69.84,69.84,0,0,0-3.464,11.849c-.043.227-.084.449-.123.671a35.4,35.4,0,0,0,.032,14.321c.039.169.082.334.126.5a19.268,19.268,0,0,0,1.938,4.843q.4.691.858,1.35c.06.082.116.164.176.246a26.493,26.493,0,0,0,4.443,4.728c.116.1.232.193.348.288.08.067.16.131.242.2,1.652,1.316,3.443,2.442,5.138,3.7l.23.174c.549.415,1.089.845,1.606,1.3a12.891,12.891,0,0,1,1.367,1.382,9.18,9.18,0,0,1,1.578,2.621c.041.109.082.218.123.329.049.145.1.29.143.437.305.974.42,2,.708,2.969A2.238,2.238,0,0,1,284.223,90.9Z" transform="translate(-253.601 -38.231)"/><path class="d" d="M265.858,76.312a9.488,9.488,0,0,1-2.935-2.334,41.79,41.79,0,0,1-2.763-3.851,2.767,2.767,0,0,1-.643-1.324c-.072-.782.79-1.223.9-1.935.137-.855-.507-1.06-1.032-1.6a5.752,5.752,0,0,1-1.583-4.5,11.291,11.291,0,0,1,1.155-3.46c.331-.722.522-1.732,1.4-1.855.454-.063,2.305.766,2.266,1.312l.026-.329c-.118-1.483-.307-2.962-.3-4.45a22.781,22.781,0,0,1,1.07-6.987c.526-1.616,1.42-5.042,3.51-5.105a13.91,13.91,0,0,0,1.706.026l.007,0c-.425.995-.858,1.986-1.285,2.979a19.775,19.775,0,0,0-1.819,8.74c.063,2.9.319,6.069-1.307,8.629a12.838,12.838,0,0,0-1.3,2.07c-1.9,4.831,6.155,8.426,3.773,12.832a3.763,3.763,0,0,0-.551,1.174.987.987,0,0,0-.01.1C266.043,76.394,265.949,76.355,265.858,76.312Z" transform="translate(-257.777 -37.244)"/><path class="d" d="M282.32,68.406a1.815,1.815,0,0,1-.3.092,9.719,9.719,0,0,1-1.979.084,17.821,17.821,0,0,0-2.85.442,29.041,29.041,0,0,1-9.419.592,9.54,9.54,0,0,1-4.174-1.561,5.033,5.033,0,0,1-2.251-3.361c-.07-1.334,1.065-2,2.143-2.368.251-.087.5-.166.753-.244.029.026.06.051.09.073a12.04,12.04,0,0,0,2.251,1.148,30.032,30.032,0,0,0,5.791,1.653,28.7,28.7,0,0,1,5.24,1.275,34.237,34.237,0,0,1,3.88,1.7Q281.918,68.159,282.32,68.406Z" transform="translate(-255.254 -21.566)"/></g></g></svg>