<svg xmlns="http://www.w3.org/2000/svg" width="444.268" height="492.511" viewBox="0 0 444.268 492.511"><defs><style>.a{fill:#174cb1;}.b,.h{fill:#06106e;}.c{fill:#89baf4;}.d,.i{fill:#c0daf9;}.d{stroke:#101d55;}.d,.h,.i{stroke-miterlimit:10;}.e{fill:#101d55;}.f{fill:#092c58;}.g{fill:#142c52;}.h,.i{stroke:#19294a;}.j{fill:#6494ee;}.k,.l{fill:#b8ddf4;}.l{opacity:0.46;}</style></defs><g transform="translate(-361 -247)"><g transform="translate(1866.877 273.923)"><path class="a" d="M-1099.029,254.263h-373.624l23.633-55.706h326.358Z" transform="translate(-6.965 -10.373)"/><path class="b" d="M4.6,0H410.1a4.6,4.6,0,0,1,4.6,4.6V26.118a0,0,0,0,1,0,0H0a0,0,0,0,1,0,0V4.6A4.6,4.6,0,0,1,4.6,0Z" transform="translate(-1502.688 243.889)"/><rect class="c" width="385.44" height="174.245" transform="translate(-1485.245 269.961)"/><rect class="c" width="44.64" height="50.548" transform="translate(-1433.478 165.488)"/><path class="b" d="M-1424.953,149.077h61.52v13.129l-8.44,3.282h-44.64l-8.44-3.376Z" transform="translate(-16.966)"/><rect class="d" width="33.574" height="66.585" transform="translate(-1449.046 343.86)"/><rect class="e" width="33.574" height="3.282" transform="translate(-1449.046 373.87)"/><path class="f" d="M0,0H52.7a0,0,0,0,1,0,0V1.007a5.558,5.558,0,0,1-5.558,5.558H5.558A5.558,5.558,0,0,1,0,1.007V0A0,0,0,0,1,0,0Z" transform="translate(-1458.611 337.342)"/><path class="f" d="M0,0H52.7a0,0,0,0,1,0,0V1.007a5.558,5.558,0,0,1-5.558,5.558H5.558A5.558,5.558,0,0,1,0,1.007V0A0,0,0,0,1,0,0Z" transform="translate(-1170.516 337.342)"/><rect class="d" width="33.574" height="66.585" transform="translate(-1160.95 343.86)"/><rect class="e" width="33.574" height="3.282" transform="translate(-1160.95 373.87)"/><path class="g" d="M0,0H78.073a0,0,0,0,1,0,0V5.652a1.8,1.8,0,0,1-1.8,1.8H1.8A1.8,1.8,0,0,1,0,5.652V0A0,0,0,0,1,0,0Z" transform="translate(-1330.999 346.72)"/><rect class="h" width="55.706" height="88.881" transform="translate(-1319.815 354.176)"/><rect class="i" width="16.834" height="30.807" transform="translate(-1310.39 364.023)"/><rect class="i" width="16.834" height="30.807" transform="translate(-1290.556 364.023)"/><path class="a" d="M-1389.355,345.259l121.663-82.152,121.23,82.152h-20.632l-100.434-68.01-100.4,68.01Z" transform="translate(-24.428 -23.906)"/><rect class="a" width="409.261" height="11.254" transform="translate(-1497.249 444.206)"/><path class="b" d="M0,0H424.641V10.128H0Z" transform="translate(-1505.877 455.46)"/><rect class="j" width="44.64" height="12.051" transform="translate(-1433.478 165.488)"/><path class="j" d="M-1319.816,487.82h-11.608V364.966l11.608-7.855Z" transform="translate(-36.573 -43.614)"/><path class="j" d="M-1152.549,487.82h11.608V364.966l-11.608-7.855Z" transform="translate(-74.074 -43.614)"/><rect class="j" width="96.782" height="13.692" transform="translate(-1366.37 320.43) rotate(-34.041)"/><rect class="j" width="96.782" height="13.692" transform="translate(-1223.528 331.776) rotate(-145.959)"/><path class="b" d="M-1362.244,348.741h24.359l75.942-51.392,77.006,51.21,23.527.182-100.533-69.023Z" transform="translate(-30.112 -27.389)"/><rect class="j" width="40.138" height="7.127" transform="translate(-1452.516 411.242)"/><rect class="j" width="40.138" height="7.127" transform="translate(-1164.232 411.242)"/></g><path class="k" d="M-835.383-1070.652a8.484,8.484,0,0,1,7.968-5.571,8.459,8.459,0,0,1,6.454,2.982,12.687,12.687,0,0,1,4.019-.641,12.22,12.22,0,0,1,5.875,1.45,9.088,9.088,0,0,1,5.232-3.534A14.285,14.285,0,0,1-791.6-1089.1a14.289,14.289,0,0,1,13.785,10.535,10.46,10.46,0,0,1,1.6-.123,10.354,10.354,0,0,1,3.918.765,8.586,8.586,0,0,1,7.482-4.37,8.6,8.6,0,0,1,2.21.288c2.833-10.065,12.893-17.507,24.869-17.507,11.891,0,21.892,7.338,24.807,17.3a8.477,8.477,0,0,1,1.112-.075,8.4,8.4,0,0,1,7.11,3.922,15.511,15.511,0,0,1,3.131-.317c7.425,0,13.444,5.2,13.444,11.613s-6.019,11.613-13.444,11.613c-.263,0-.524-.007-.784-.02-1.88,3.711-6.935,6.368-12.877,6.368a16.634,16.634,0,0,1-10.222-3.223,178.421,178.421,0,0,1-26.708,1.851h-.228a24.193,24.193,0,0,1-8.149,1.372,23.418,23.418,0,0,1-10.15-2.211c-2.3-.219-4.488-.478-6.56-.771a17.442,17.442,0,0,1-10.115,2.983,17.114,17.114,0,0,1-10.624-3.369,12.1,12.1,0,0,1-6.791,1.978c-3.927,0-7.334-1.693-9.029-4.172a12.67,12.67,0,0,1-8.238,2.819c-6.028,0-10.915-3.669-10.915-8.2a6.247,6.247,0,0,1,.113-1.182c-.064-.053-.128-.106-.19-.161q-.519.017-1.05.017c-6.78,0-12.276-2.082-12.276-4.65C-846.362-1068.431-841.553-1070.407-835.383-1070.652Z" transform="translate(1207.362 1423.511)"/><path class="l" d="M-2072.829-737.654c-.028-.126-.054-.251-.086-.376a13.453,13.453,0,0,0-16.371-9.693,13.382,13.382,0,0,0-5.98,3.331,13.457,13.457,0,0,0-15.4-7.1c-3.408-7.53-10.234-12.671-18.1-12.671a17.9,17.9,0,0,0-6.035,1.048c-7.2-10.485-20.129-17.478-34.885-17.478-21.187,0-38.613,14.414-40.71,32.886-17.553,1.955-30.726,10.152-30.726,19.969,0,11.273,17.371,20.413,38.8,20.413a68.055,68.055,0,0,0,18.145-2.367,45.087,45.087,0,0,0,14.492,2.367,44.466,44.466,0,0,0,20.284-4.812c8.262,2.98,19.485,4.812,31.849,4.812a110.23,110.23,0,0,0,22.552-2.216,31.053,31.053,0,0,0,4.8-.438q2.236.1,4.543.1c21.428,0,38.8-6.4,38.8-14.288C-2046.859-730.4-2057.707-735.7-2072.829-737.654Z" transform="translate(2852.127 1053.591)"/><path class="k" d="M1161.087-1055.129a15.743,15.743,0,0,1,2.752.239,6.969,6.969,0,0,1,6.37-4.139,6.936,6.936,0,0,1,3.8,1.128c.081-3.6,2.705-6.491,5.93-6.491a5.7,5.7,0,0,1,4.607,2.466,8.473,8.473,0,0,1,7.826-4.9,8.279,8.279,0,0,1,8.375,6.822l.107.112a4.846,4.846,0,0,1,2-.433,5.237,5.237,0,0,1,4.992,4.138,9.787,9.787,0,0,1,1.208-.075c4.529,0,8.2,3.1,8.235,6.94,2.617.476,4.494,1.773,4.494,3.3,0,1.93-3,3.494-6.708,3.494a12.081,12.081,0,0,1-2.788-.316,9.485,9.485,0,0,1-3.233.559,9.571,9.571,0,0,1-2.58-.351,7.331,7.331,0,0,1-4.319,1.326,7.309,7.309,0,0,1-4.374-1.367,12.064,12.064,0,0,1-5.605,1.367,12.1,12.1,0,0,1-4.833-1,4.983,4.983,0,0,1-3.072,1,4.392,4.392,0,0,1-4.053-2.2,11.19,11.19,0,0,1-3.045.415,10.176,10.176,0,0,1-6.274-2.025q-.342.034-.694.034a6.989,6.989,0,0,1-1.563-.176,13,13,0,0,1-7.558,2.167c-5.43,0-9.832-2.692-9.832-6.013S1155.657-1055.129,1161.087-1055.129Z" transform="translate(-652.255 1313.83)"/></g></svg>