<svg xmlns="http://www.w3.org/2000/svg" width="605" height="146" viewBox="0 0 605 146"><defs><style>.a,.b{fill:#06106e;}.b{font-size:26px;font-family:CenturyGothic, Century Gothic;}.c,.e{fill:none;}.c{stroke:#ff748d;stroke-width:30px;}.d{stroke:none;}</style></defs><g transform="translate(32 34)"><path class="a" d="M663.631,761.271V750.945a.863.863,0,0,0-.139-.467l-3.921-6.12-.27-.423-1.8-2.818a1.108,1.108,0,0,0-1.865,0l-1.806,2.818-.27.423-3.919,6.115a.863.863,0,0,0-.139.467v10.33a.988.988,0,0,1-1.036.933H625.857a.937.937,0,0,1-.9-1.4l10.85-16.936,10.814-16.878a1.107,1.107,0,0,1,1.865,0l7.143,11.149a1.108,1.108,0,0,0,1.865,0l7.143-11.149a1.107,1.107,0,0,1,1.865,0l10.814,16.878,10.85,16.936a.937.937,0,0,1-.9,1.4H664.667A.988.988,0,0,1,663.631,761.271Z" transform="translate(-495.819 -701)"/><text class="b" transform="translate(203 53)"><tspan x="0" y="0">pinetown.in</tspan></text><g class="c" transform="translate(-32 -34)"><path class="d" d="M0,0H605a0,0,0,0,1,0,0V2A144,144,0,0,1,461,146H0a0,0,0,0,1,0,0V0A0,0,0,0,1,0,0Z"/><path class="e" d="M27.083,15H577.917A12.083,12.083,0,0,1,590,27.083v0A103.917,103.917,0,0,1,486.083,131h-459A12.083,12.083,0,0,1,15,118.917V27.083A12.083,12.083,0,0,1,27.083,15Z"/></g></g></svg>