<svg xmlns="http://www.w3.org/2000/svg" width="464" height="117" viewBox="0 0 464 117"><defs><style>.a{fill:#fff;stroke:#ff748d;stroke-width:31px;}.b{fill:#06106e;font-size:42px;font-family:CenturyGothic-Bold, Century Gothic;font-weight:700;}.c{stroke:none;}.d{fill:none;}</style></defs><g transform="translate(-341 -782)"><g class="a" transform="translate(341 782)"><path class="c" d="M0,0H405.5A58.5,58.5,0,0,1,464,58.5v0A58.5,58.5,0,0,1,405.5,117H58.5A58.5,58.5,0,0,1,0,58.5V0A0,0,0,0,1,0,0Z"/><path class="d" d="M26.893,15.5H405.5a43,43,0,0,1,43,43v0a43,43,0,0,1-43,43H58.5a43,43,0,0,1-43-43V26.893A11.393,11.393,0,0,1,26.893,15.5Z"/></g><text class="b" transform="translate(413 856)"><tspan x="0" y="0">See Rooms/PGs</tspan></text></g></svg>