<svg xmlns="http://www.w3.org/2000/svg" width="23.96" height="23.196" viewBox="0 0 23.96 23.196"><defs><style>.a{fill:#06106e;}</style></defs><g transform="translate(0 -4.89)"><path class="a" d="M23.66,16.208a1.142,1.142,0,0,0-.094-1.635L12.858,5.2a1.335,1.335,0,0,0-1.741.02L.372,15.073a1.136,1.136,0,0,0-.052,1.633l.269.281a1.175,1.175,0,0,0,1.612.123l.8-.719V26.918a1.169,1.169,0,0,0,1.169,1.169H8.363a1.169,1.169,0,0,0,1.169-1.169V19.553h5.342v7.365a1.1,1.1,0,0,0,1.1,1.168H20.41a1.169,1.169,0,0,0,1.169-1.169V16.538l.5.435c.273.24.847.048,1.281-.431Z" transform="translate(0)"/></g></svg>